<svg viewBox="0 0 94 103" fill="none" xmlns="http://www.w3.org/2000/svg">
<g id="logoMark">
<g id="logomark">
<g id="MyHope8_color">
<g id="Group">
<g id="Vector">
<path d="M38.6364 20.3539L39.6417 28.2536L41.4209 30.7465L41.7209 27.6961L38.6364 20.3539Z" fill="#F6DE62"/>
<path d="M24.1505 28.7059L28.9721 35.0487L31.7619 36.3162L30.4934 33.5235L24.1505 28.7059Z" fill="#CCE198"/>
<path d="M15.7864 43.1797L23.1346 46.2617L26.1876 45.9619L23.6926 44.1843L15.7864 43.1797Z" fill="#89C997"/>
<path d="M15.7864 59.8888L23.6926 58.8895L26.1876 57.1066L23.1346 56.8121L15.7864 59.8888Z" fill="#82C4C2"/>
<path d="M24.1453 74.3627L30.4934 69.5451L31.7619 66.7576L28.9669 68.0251L24.1453 74.3627Z" fill="#7ECEF4"/>
<path d="M38.6311 82.7199L41.7157 75.3778L41.4209 72.3273L39.6365 74.8202L38.6311 82.7199Z" fill="#88ABDA"/>
<path d="M55.3593 82.7251L54.3539 74.8255L52.5695 72.3326L52.2747 75.3778L55.3593 82.7251Z" fill="#8F82BC"/>
<path d="M69.8451 74.3679L65.0183 68.0304L62.2285 66.7576L63.497 69.5503L69.8451 74.3679Z" fill="#C490BF"/>
<path d="M78.2092 59.8941L70.8558 56.8121L67.8028 57.1119L70.2978 58.8948L78.2092 59.8941Z" fill="#F19EC2"/>
<path d="M78.2092 43.185L70.3031 44.1843L67.8081 45.9672L70.861 46.267L78.2092 43.185Z" fill="#F29C9F"/>
<path d="M69.8451 28.7111L63.5023 33.5287L62.2338 36.3162L65.0235 35.0487L69.8451 28.7111Z" fill="#F29A76"/>
<path d="M55.3593 20.3539L52.28 27.6961L52.5748 30.7465L54.3592 28.2536L55.3593 20.3539Z" fill="#FACD89"/>
<path d="M47.0005 13.5115L45.9214 24.2722L47.0005 30.0102L48.0743 24.2722L47.0005 13.5115Z" fill="#FFE45F"/>
<path d="M27.9773 18.6078L32.4304 28.4639L36.2308 32.8923L34.2938 27.3858L27.9773 18.6078Z" fill="#CCE198"/>
<path d="M14.0494 32.5189L22.8399 38.8302L28.351 40.7709L23.9137 36.9684L14.0494 32.5189Z" fill="#89C997"/>
<path d="M8.9541 51.5264L19.7237 52.6046L25.4665 51.5264L19.7237 50.4535L8.9541 51.5264Z" fill="#82C4C2"/>
<path d="M14.0494 70.5338L23.9137 66.0844L28.351 62.2871L22.8399 64.2226L14.0494 70.5338Z" fill="#7ECEF4"/>
<path d="M27.9773 84.4502L34.2938 75.667L36.2308 70.1604L32.4304 74.5941L27.9773 84.4502Z" fill="#88ABDA"/>
<path d="M47.0005 89.5413L48.0743 78.7806L47.0005 73.0426L45.9214 78.7806L47.0005 89.5413Z" fill="#8F82BC"/>
<path d="M66.0236 84.4449L61.5705 74.5888L57.7648 70.1604L59.7071 75.667L66.0236 84.4449Z" fill="#C490BF"/>
<path d="M79.9463 70.5338L71.1611 64.2226L65.6499 62.2818L70.082 66.0844L79.9463 70.5338Z" fill="#F19EC2"/>
<path d="M85.0416 51.5264L74.2772 50.4482L68.5345 51.5264L74.2772 52.6046L85.0416 51.5264Z" fill="#F29C9F"/>
<path d="M79.9463 32.5189L70.082 36.9684L65.6447 40.7709L71.1611 38.8302L79.9463 32.5189Z" fill="#F29A76"/>
<path d="M66.0184 18.6078L59.7019 27.3858L57.7648 32.8923L61.5705 28.4639L66.0184 18.6078Z" fill="#FACD89"/>
<path d="M58.6123 42.2488C58.8123 43.1429 58.9229 44.0686 58.9229 45.0258C58.9229 49.2754 56.8068 53.0306 53.5749 55.3026C53.3485 55.4604 53.1169 55.6182 52.8801 55.7602C52.7327 55.8601 52.5906 55.9706 52.4484 56.0758C55.4804 51.4422 54.7645 44.8838 54.7645 44.8838C54.7487 45.031 54.8066 44.037 54.8066 43.3901C54.8066 35.6062 50.4377 28.8374 44.0159 25.403C44.0265 25.4135 44.0317 25.424 44.0422 25.4293C42.7579 24.0723 41.284 22.8995 39.6628 21.9581C42.7105 23.8567 44.7371 27.2332 44.7371 31.0884C44.7371 34.9435 42.8842 38.015 40.0629 39.9557C39.9576 40.0241 39.7418 40.1661 39.747 40.1608C34.5833 43.6794 31.1934 49.6014 31.1934 56.3177C31.1934 57.0014 31.2303 57.6746 31.2987 58.3373C32.0356 65.5374 36.694 71.5647 43.1 74.2891C44.6844 76.761 46.8215 78.8489 49.3376 80.3689C49.2007 80.1901 49.0691 80.006 48.9428 79.8219C49.1112 80.0481 49.2691 80.2427 49.406 80.4005C49.5744 80.6056 49.7481 80.8107 49.9271 81.0106C49.9271 80.9948 49.9166 80.979 49.9113 80.9632C49.9218 80.9737 49.9271 80.979 49.9271 80.979C49.9218 80.9737 49.9166 80.9632 49.9061 80.958C49.4692 79.6536 49.2323 78.2599 49.2323 76.8083C49.2323 72.18 51.6273 68.1145 55.2435 65.7688C55.4751 65.6163 55.712 65.4743 55.9541 65.3376C60.1072 62.671 62.8601 58.0165 62.8654 52.7203C62.8654 52.7203 62.8654 52.7097 62.8654 52.7045C62.8654 48.6337 61.2389 44.9416 58.607 42.2383L58.6123 42.2488Z" fill="white"/>
<path d="M49.2902 36.8316C48.6375 30.473 44.9318 25.0243 39.6628 21.9581C42.7105 23.8567 44.7371 27.2332 44.7371 31.0884C44.7371 34.9435 42.8842 38.015 40.0629 39.9557C39.9576 40.0241 39.8523 40.0925 39.747 40.1608C34.5833 43.6794 31.1934 49.6014 31.1934 56.3177C31.1934 57.0014 31.2303 57.6746 31.2987 58.3373C32.0725 65.8582 37.1151 72.1117 43.9633 74.6467C41.5314 71.5962 40.0786 67.7358 40.0786 63.5388C40.0786 58.9579 41.8052 54.782 44.6371 51.6211C44.6739 51.5842 44.7055 51.5422 44.7423 51.5053C47.6426 48.0973 49.3902 43.6846 49.3902 38.8565C49.3902 38.1728 49.3534 37.4996 49.2849 36.8369L49.2902 36.8316Z" fill="url(#paint0_linear_40_5595)"/>
<path d="M49.2902 36.8316C48.8375 32.4085 46.7952 28.4113 44.0317 25.4135C44.0317 25.4135 48.5796 30.8938 48.7901 35.9691C49.2112 45.9041 42.3684 48.6916 39.5838 55.5183C37.5257 60.5778 36.8362 69.0454 43.9633 74.6362C41.5314 71.5857 40.0786 67.7253 40.0786 63.5283C40.0786 58.9474 41.8051 54.7714 44.637 51.6105C44.6739 51.5737 44.7055 51.5316 44.7423 51.4948C48.5217 47.2032 49.3902 43.6741 49.3902 38.846C49.3902 38.1623 49.3534 37.4891 49.2849 36.8264L49.2902 36.8316Z" fill="url(#paint1_linear_40_5595)"/>
<path d="M45.4635 33.8706C46.4846 30.7202 44.9318 25.0243 39.6628 21.9581C42.7105 23.8567 44.7371 27.2332 44.7371 31.0884C44.7371 34.9435 42.8842 38.015 40.0629 39.9557C39.9576 40.0241 39.7418 40.1661 39.747 40.1608C39.9313 40.0872 43.9528 38.5199 45.4635 33.8706Z" fill="url(#paint2_linear_40_5595)"/>
<path d="M54.7645 44.8838C54.7645 44.8838 55.5067 51.6999 52.2695 56.344C50.3166 59.1473 42.1262 72.0906 49.9271 80.979C49.9271 80.979 44.2475 75.4672 45.4161 66.0371C46.5846 56.6017 53.6749 55.4709 54.7645 44.8838Z" fill="url(#paint3_linear_40_5595)"/>
<path d="M44.0212 25.403C46.9162 28.4482 48.8375 32.419 49.2902 36.8316C49.3586 37.4943 49.3955 38.1675 49.3955 38.8512C49.3955 43.4059 47.8374 47.5924 45.2213 50.911C44.695 51.4791 44.2002 52.0734 43.7422 52.6992C41.5525 55.5656 40.2102 59.1157 40.0892 62.9708C40.0892 62.9708 40.0892 62.9708 40.0944 62.9708C40.0786 63.3022 40.0681 63.6335 40.0681 63.9649C40.0681 70.923 43.7791 77.0134 49.3376 80.3689C46.9215 77.1659 45.4845 73.1741 45.4845 68.8561C45.4845 64.312 47.0689 60.1465 49.7166 56.8594C49.8955 56.6333 50.085 56.4176 50.2745 56.1967C52.7222 53.1778 54.3171 49.4437 54.7119 45.3571C54.775 44.7102 54.8119 44.0528 54.8119 43.3901C54.8119 35.6062 50.443 28.8374 44.0212 25.403Z" fill="url(#paint4_linear_40_5595)"/>
<path d="M58.6123 42.2488C58.8123 43.1429 58.9229 44.0686 58.9229 45.0258C58.9229 49.2754 56.8068 53.0306 53.5749 55.3026C53.3485 55.4604 53.1169 55.6182 52.8801 55.7602C49.0217 58.4425 46.332 62.6868 45.7214 67.5728C45.6372 68.267 45.5845 68.9718 45.5845 69.6923C45.5845 74.0471 47.2268 78.0127 49.9218 81.0158C49.4744 79.6957 49.2323 78.2862 49.2323 76.8136C49.2323 72.1853 51.6273 68.1198 55.2435 65.7741C55.4751 65.6216 55.712 65.4796 55.9541 65.3428C60.1072 62.6763 62.8601 58.0217 62.8654 52.7255C62.8654 52.7255 62.8654 52.715 62.8654 52.7098C62.8654 48.639 61.2389 44.9469 58.607 42.2436L58.6123 42.2488Z" fill="url(#paint5_linear_40_5595)"/>
<path d="M58.6123 42.2488C58.8123 43.1429 58.9229 44.0686 58.9229 45.0258C58.9229 49.2754 56.8068 53.0306 53.5749 55.3026C53.3485 55.4604 53.1169 55.6182 52.8801 55.7602C58.9965 53.1778 60.9705 46.5457 58.607 42.2541L58.6123 42.2488Z" fill="url(#paint6_linear_40_5595)"/>
<path d="M48.7059 73.0321C48.6217 73.7263 48.0006 77.0134 49.9271 81.0106C49.4797 79.6905 49.2376 78.2809 49.2376 76.8083C49.2376 72.18 51.6326 68.1145 55.2488 65.7688C55.4804 65.6163 55.7172 65.4743 55.9594 65.3376C54.4908 65.7057 49.3165 68.1356 48.7059 73.0268V73.0321Z" fill="url(#paint7_linear_40_5595)"/>
</g>
</g>
</g>
</g>
</g>
<defs>
<linearGradient id="paint0_linear_40_5595" x1="99.8761" y1="82.0658" x2="84.6322" y2="5.49378" gradientUnits="userSpaceOnUse">
<stop stop-color="#D1722D"/>
<stop offset="0.31" stop-color="#CF8043"/>
<stop offset="0.32" stop-color="#D08344"/>
<stop offset="0.4" stop-color="#D99D4C"/>
<stop offset="0.49" stop-color="#DFB052"/>
<stop offset="0.58" stop-color="#E3BC55"/>
<stop offset="0.67" stop-color="#E5C057"/>
<stop offset="0.99" stop-color="#DFD84A"/>
</linearGradient>
<linearGradient id="paint1_linear_40_5595" x1="118.955" y1="80.264" x2="109.151" y2="5.56792" gradientUnits="userSpaceOnUse">
<stop stop-color="#F1EB45"/>
<stop offset="0.02" stop-color="#EFE042"/>
<stop offset="0.16" stop-color="#E8A232"/>
<stop offset="0.28" stop-color="#E17125"/>
<stop offset="0.39" stop-color="#DD4E1C"/>
<stop offset="0.48" stop-color="#DA3817"/>
<stop offset="0.54" stop-color="#DA3115"/>
<stop offset="0.99" stop-color="#B65520"/>
</linearGradient>
<linearGradient id="paint2_linear_40_5595" x1="68.4111" y1="78.6009" x2="54.1644" y2="4.79202" gradientUnits="userSpaceOnUse">
<stop stop-color="#DC4A1D"/>
<stop offset="0.3" stop-color="#E16B28"/>
<stop offset="0.46" stop-color="#E58434"/>
<stop offset="0.63" stop-color="#E9963D"/>
<stop offset="0.8" stop-color="#EBA243"/>
<stop offset="0.99" stop-color="#ECA645"/>
</linearGradient>
<linearGradient id="paint3_linear_40_5595" x1="121.206" y1="78.0532" x2="110.72" y2="9.50056" gradientUnits="userSpaceOnUse">
<stop stop-color="#861684"/>
<stop offset="0.36" stop-color="#B10B6E"/>
<stop offset="0.43" stop-color="#BC1854"/>
<stop offset="0.53" stop-color="#CC2C31"/>
<stop offset="0.62" stop-color="#D6371B"/>
<stop offset="0.68" stop-color="#DA3C14"/>
<stop offset="0.69" stop-color="#D53C15"/>
<stop offset="0.79" stop-color="#C33F1C"/>
<stop offset="0.89" stop-color="#B74120"/>
<stop offset="1" stop-color="#B44222"/>
</linearGradient>
<linearGradient id="paint4_linear_40_5595" x1="109.517" y1="81.3862" x2="97.3941" y2="2.99089" gradientUnits="userSpaceOnUse">
<stop offset="0.1" stop-color="#864395"/>
<stop offset="0.32" stop-color="#E63266"/>
<stop offset="0.34" stop-color="#E63B5A"/>
<stop offset="0.41" stop-color="#E95737"/>
<stop offset="0.47" stop-color="#EB6821"/>
<stop offset="0.51" stop-color="#EC6F1A"/>
<stop offset="0.53" stop-color="#ED7C19"/>
<stop offset="0.58" stop-color="#F19618"/>
<stop offset="0.62" stop-color="#F3A517"/>
<stop offset="0.66" stop-color="#F4AB17"/>
<stop offset="0.68" stop-color="#F4B320"/>
<stop offset="0.73" stop-color="#F4CC3A"/>
<stop offset="0.79" stop-color="#F4DE4D"/>
<stop offset="0.85" stop-color="#F4E959"/>
<stop offset="0.91" stop-color="#F4ED5D"/>
</linearGradient>
<linearGradient id="paint5_linear_40_5595" x1="-5.0675" y1="74.7829" x2="29.4864" y2="-2.86689" gradientUnits="userSpaceOnUse">
<stop stop-color="#871284"/>
<stop offset="0.09" stop-color="#97127E"/>
<stop offset="0.28" stop-color="#BA1272"/>
<stop offset="0.44" stop-color="#D0126A"/>
<stop offset="0.55" stop-color="#D81368"/>
<stop offset="0.57" stop-color="#D91866"/>
<stop offset="0.67" stop-color="#E0325E"/>
<stop offset="0.78" stop-color="#E54558"/>
<stop offset="0.88" stop-color="#E85155"/>
<stop offset="1" stop-color="#E95554"/>
</linearGradient>
<linearGradient id="paint6_linear_40_5595" x1="46.9903" y1="89.5117" x2="46.9903" y2="13.5115" gradientUnits="userSpaceOnUse">
<stop offset="0.2" stop-color="#A05CA1"/>
<stop offset="0.27" stop-color="#A54784"/>
<stop offset="0.37" stop-color="#AC2E61"/>
<stop offset="0.45" stop-color="#B01E4B"/>
<stop offset="0.5" stop-color="#B21944"/>
<stop offset="0.51" stop-color="#B31C45"/>
<stop offset="0.6" stop-color="#C83E51"/>
<stop offset="0.7" stop-color="#D8585B"/>
<stop offset="0.8" stop-color="#E36B62"/>
<stop offset="0.89" stop-color="#EA7766"/>
<stop offset="1" stop-color="#ED7B68"/>
</linearGradient>
<linearGradient id="paint7_linear_40_5595" x1="47.0422" y1="78.1337" x2="57.8923" y2="67.2746" gradientUnits="userSpaceOnUse">
<stop stop-color="#60245D"/>
<stop offset="0.23" stop-color="#6D1D3B"/>
<stop offset="0.42" stop-color="#761925"/>
<stop offset="0.55" stop-color="#7A181E"/>
<stop offset="0.65" stop-color="#911A20"/>
<stop offset="0.76" stop-color="#A31C21"/>
<stop offset="0.88" stop-color="#AF1D22"/>
<stop offset="1" stop-color="#B31E23"/>
</linearGradient>
</defs>
</svg>
